<svg width="128" height="128" viewBox="0 0 128 128" fill="none" xmlns="http://www.w3.org/2000/svg"><path d="M36.047 49.715h44.141M36.047 65.93h12.049M56.35 82.958l-20.594 11.95v-12.93h-13.67V33.833h71.76v31.078" stroke="#007FED" stroke-width="4" stroke-miterlimit="10"/><path d="M95.862 106.704v-8.78l10.123.077V65.869l-49.825-.067v32.122h24.702l15 8.78z" stroke="#007FED" stroke-width="4" stroke-miterlimit="10"/><path d="M81.034 83.97a2.29 2.29 0 100-4.58 2.29 2.29 0 000 4.58zM91.99 83.97a2.29 2.29 0 100-4.58 2.29 2.29 0 000 4.58zM70.079 83.97a2.29 2.29 0 100-4.58 2.29 2.29 0 000 4.58z" fill="#007FED"/></svg>
